<?xml version="1.0" encoding="UTF-8"?>
<svg id="Layer_1" xmlns="http://www.w3.org/2000/svg" version="1.1" viewBox="0 0 1573.5 266.2">

  <defs>
    <style>
      .st0 {
        fill: #fff;
      }

      .st0, .st1, .st2, .st3 {
        opacity: .5;
      }

      .st1 {
        fill: #1d9bf0;
      }

      .st2 {
        font-family: Helvetica-Bold, Helvetica;
        font-size: 164px;
        font-weight: 700;
      }

      .st4 {
        fill: #2f855a;
      }
    </style>
  </defs>
  <g id="Generative_Object" class="st3">
    <path class="st4" d="M90.3,0c44.7-1.9,85.1,28.2,96.6,71.2,11.1,41.5-11.3,83-32.9,117-17.3,27.3-37.9,53.2-58.8,77.7-20.2-23.1-39.4-47.4-56.2-73.1C18.8,161.9-4.8,119.9.8,81.7,7.3,38,45.9,2,90.3,0Z"/>
  </g>
  <path class="st0" d="M168.6,95.5c.2,41.2-33.3,74.7-74.3,74.7S20,136.8,20,95.5,53.2,20.9,94.3,20.9c41,0,74.1,33.5,74.3,74.7Z"/>
  <path class="st1" d="M161.2,84.4c.4,2.2.8,4.8.9,8.9s-.3,9.4-.3,9.4h-57.4v24.1h6.5v-17.6h21.2v43c-10.1,7-21.2,9.5-21.2,9.5v-23h-6.5v24.3s-3,1.1-12.7.7-12.7-1.7-12.7-1.7v-59.3h-27.9c0-.1.1-.3,0-.1h-24.4c0,0-.4-3.6-.4-9.3s.9-8.9.9-8.9h24v-31.9h-9.6c6.6-9,17.7-17.7,30.3-21.4v53.3"/>
  <path class="st1" d="M131,54.9v23.1h-52.5v-18.9h-6.5v-11.8s6.5,0,6.5,0v-18c8.1-2,17.2-2.5,25.4-1.2v26.8h27.1Z"/>
  <path class="st1" d="M72.6,160.1c-11.2-3.7-21.6-10.5-29.5-19.3s-13.6-22.3-15.2-31.7h19.4v-7.1h11.8v7.1h13.6"/>
  <path class="st1" d="M160.8,109.1c-2.4,12.8-9.9,27.8-22.2,38.1v-38.1"/>
  <path class="st1" d="M159.8,77.9h-22.3v-34.8c11,8.6,18.9,21.6,22.3,34.8Z"/>
  <path class="st1" d="M131,48.4h-20.6v-19.1c6.2,1.3,16.5,5.8,20.6,8.9"/>
  <path class="st1" d="M28.7,77.9c1.7-7.1,4.6-13,8.3-18.9h7.8v18.9"/>
  <text class="st2" transform="translate(205.1 180.2)"><tspan x="0" y="0">OpenIndoorMaps</tspan></text>
  <text/>
  <text/>
</svg>